<svg xmlns="http://www.w3.org/2000/svg" version="1.1" xmlns:xlink="http://www.w3.org/1999/xlink" xmlns:svgjs="http://svgjs.dev/svgjs" width="1000" height="1000" viewBox="0 0 1000 1000"><rect width="1000" height="1000" fill="#000000"></rect><g transform="matrix(0.7,0,0,0.7,150,281.25)"><svg viewBox="0 0 576 360" data-background-color="#ffffff" preserveAspectRatio="xMidYMid meet" height="625" width="1000" xmlns="http://www.w3.org/2000/svg" xmlns:xlink="http://www.w3.org/1999/xlink"><g id="tight-bounds" transform="matrix(1,0,0,1,0,0)"><svg viewBox="0 0 576 360" height="360" width="576"><g><svg></svg></g><g><svg viewBox="0 0 576 360" height="360" width="576"><g><path xmlns="http://www.w3.org/2000/svg" d="M132.115 90l155.885-90 155.885 90v180l-155.885 90-155.885-90zM139.402 265.793l148.598 85.793 148.598-85.793v-171.586l-148.598-85.793-148.598 85.793z" fill="#aa7e39" fill-rule="nonzero" stroke="none" stroke-width="1" stroke-linecap="butt" stroke-linejoin="miter" stroke-miterlimit="10" stroke-dasharray="" stroke-dashoffset="0" font-family="none" font-weight="none" font-size="none" text-anchor="none" style="mix-blend-mode: normal" data-fill-palette-color="tertiary"></path></g><g transform="matrix(1,0,0,1,172.8,122.80154018866452)"><svg viewBox="0 0 230.4 114.39691962267098" height="114.39691962267098" width="230.4"><g><svg viewBox="0 0 416.51333470093874 206.80487183834177" height="114.39691962267098" width="230.4"><g><rect width="13.173298432662477" height="206.80487183834177" x="138.45496183722264" y="0" fill="#ffffff" opacity="1" stroke-width="0" stroke="transparent" fill-opacity="1" class="rect-o-0" data-fill-palette-color="primary" rx="1%" id="o-0" data-palette-color="#aa7e39"></rect></g><g transform="matrix(1,0,0,1,186.1133347009387,0.5144399796973573)"><svg viewBox="0 0 230.40000000000003 205.77599187894705" height="205.77599187894705" width="230.40000000000003"><g><svg viewBox="0 0 230.40000000000003 205.77599187894705" height="205.77599187894705" width="230.40000000000003"><g><svg viewBox="0 0 230.40000000000003 158.85249537892793" height="158.85249537892793" width="230.40000000000003"><g transform="matrix(1,0,0,1,0,0)"><svg width="230.40000000000003" viewBox="-0.05000000447034836 -34.29999923706055 54.10000228881836 34.29999923706055" height="158.85249537892793" data-palette-color="#aa7e39"><svg></svg><g class="undefined-text-0" data-fill-palette-color="primary" id="text-0"><path xmlns="http://www.w3.org/2000/svg" d="M-0.05 0l10.95-34.3h6.25l10.95 34.3h-5.35l-2.25-7.35h-13.3l-2.25 7.35zM8.55-11.9h10.55l-4.3-14.05c-0.267-0.867-0.55-2.217-0.85-4.05v0h-0.2c-0.3 1.9-0.583 3.25-0.85 4.05v0zM31.4 0v-34.3h12.25c3.333 0 5.9 0.917 7.7 2.75 1.8 1.833 2.7 4.283 2.7 7.35v0c0 3.1-0.94 5.59-2.82 7.47-1.887 1.887-4.413 2.83-7.58 2.83v0h-7.25v13.9zM36.4-18.4h6.95c1.667 0 2.993-0.527 3.98-1.58 0.98-1.047 1.47-2.453 1.47-4.22v0c0-1.733-0.473-3.093-1.42-4.08-0.953-0.98-2.297-1.47-4.03-1.47v0h-6.95z" fill="#ffffff" fill-rule="nonzero" stroke="none" stroke-width="1" stroke-linecap="butt" stroke-linejoin="miter" stroke-miterlimit="10" stroke-dasharray="" stroke-dashoffset="0" font-family="none" font-weight="none" font-size="none" text-anchor="none" style="mix-blend-mode: normal" data-fill-palette-color="primary" opacity="1"></path></g></svg></g></svg></g><g transform="matrix(1,0,0,1,0,193.33756980998152)"><svg viewBox="0 0 135.26784 12.438422068965519" height="12.438422068965519" width="135.26784"><g transform="matrix(1,0,0,1,0,0)"><svg width="135.26784" viewBox="0 -50 543.72998046875 50" height="12.438422068965519" data-palette-color="#aa7e39"><path d="M12.5-6.25L0-6.25 0-37.5 6.25-37.5 6.25-43.75 12.5-43.75 12.5-50 31.25-50 31.25-43.75 37.5-43.75 37.5-37.5 43.75-37.5 43.75-6.25 31.25-6.25 31.25-18.75 12.5-18.75 12.5-6.25ZM12.5-37.5L12.5-25 31.25-25 31.25-37.5 25-37.5 25-43.75 18.75-43.75 18.75-37.5 12.5-37.5ZM81.25-6.25L68.75-6.25 68.75-12.5 62.5-12.5 62.5-18.75 56.25-18.75 56.25-37.5 68.75-37.5 68.75-18.75 81.25-18.75 81.25-37.5 93.75-37.5 93.75-18.75 87.5-18.75 87.5-12.5 81.25-12.5 81.25-6.25ZM137.5-6.25L106.25-6.25 106.25-12.5 100-12.5 100-31.25 106.25-31.25 106.25-37.5 137.5-37.5 137.5-31.25 143.75-31.25 143.75-18.75 112.5-18.75 112.5-12.5 137.5-12.5 137.5-6.25ZM112.5-31.25L112.5-25 131.25-25 131.25-31.25 112.5-31.25ZM168.74-37.5L168.74-31.25 174.99-31.25 174.99-25 168.74-25 168.74-6.25 156.24-6.25 156.24-37.5 168.74-37.5ZM174.99-37.5L193.74-37.5 193.74-31.25 174.99-31.25 174.99-37.5ZM237.49 0L206.24 0 206.24-6.25 231.24-6.25 231.24-12.5 206.24-12.5 206.24-18.75 199.99-18.75 199.99-37.5 212.49-37.5 212.49-18.75 231.24-18.75 231.24-37.5 243.74-37.5 243.74-6.25 237.49-6.25 237.49 0ZM312.49-6.25L299.99-6.25 299.99-50 337.49-50 337.49-43.75 343.74-43.75 343.74-25 337.49-25 337.49-18.75 312.49-18.75 312.49-6.25ZM312.49-43.75L312.49-25 331.24-25 331.24-43.75 312.49-43.75ZM387.48-6.25L356.23-6.25 356.23-12.5 349.98-12.5 349.98-31.25 356.23-31.25 356.23-37.5 387.48-37.5 387.48-31.25 393.73-31.25 393.73-18.75 362.48-18.75 362.48-12.5 387.48-12.5 387.48-6.25ZM362.48-31.25L362.48-25 381.23-25 381.23-31.25 362.48-31.25ZM443.73-6.25L406.23-6.25 406.23-12.5 399.98-12.5 399.98-18.75 406.23-18.75 406.23-25 431.23-25 431.23-31.25 406.23-31.25 406.23-37.5 437.48-37.5 437.48-31.25 443.73-31.25 443.73-6.25ZM412.48-18.75L412.48-12.5 431.23-12.5 431.23-18.75 412.48-18.75ZM468.73-37.5L468.73-31.25 474.98-31.25 474.98-25 468.73-25 468.73-6.25 456.23-6.25 456.23-37.5 468.73-37.5ZM474.98-37.5L493.73-37.5 493.73-31.25 474.98-31.25 474.98-37.5ZM537.48-6.25L499.98-6.25 499.98-12.5 531.23-12.5 531.23-18.75 506.23-18.75 506.23-25 499.98-25 499.98-31.25 506.23-31.25 506.23-37.5 537.48-37.5 537.48-31.25 512.48-31.25 512.48-25 537.48-25 537.48-18.75 543.73-18.75 543.73-12.5 537.48-12.5 537.48-6.25Z" opacity="1" transform="matrix(1,0,0,1,0,0)" fill="#ffffff" class="undefined-text-1" data-fill-palette-color="secondary" id="text-1"></path></svg></g></svg></g></svg></g></svg></g><g transform="matrix(1,0,0,1,0,0.5144399796973715)"><svg viewBox="0 0 103.96988740616904 205.77599187894702" height="205.77599187894702" width="103.96988740616904"><g><svg xmlns="http://www.w3.org/2000/svg" xmlns:xlink="http://www.w3.org/1999/xlink" version="1.1" x="0" y="0" viewBox="26.714370727539062 2.0009078979492188 48.28650665283203 95.5680923461914" enable-background="new 0 0 100 100" xml:space="preserve" height="205.77599187894702" width="103.96988740616904" class="icon-icon-0" data-fill-palette-color="accent" id="icon-0"><g fill="#aa7e39" data-fill-palette-color="accent"><path d="M73.324 65.278c-5.594-11.187-8.896-13.002-8.901-26.676C64.418 25.081 53 24.347 50 24.314v-0.003c0 0-12.266 0.59-12.565 14.696-0.291 13.637-3.46 15.084-9.053 26.271-5.091 10.181 1.679 25.35 17.513 27.022 0.595-0.984 2.637-1.709 5.007-1.709 2.372 0 4.387 0.725 4.984 1.709C71.719 90.628 78.415 75.459 73.324 65.278zM42.741 75.566c-3.772-2.9 2.612-7.543 5.513-11.315 0 0 0.58 8.704 0.58 10.155C48.834 75.856 46.512 78.468 42.741 75.566zM59.161 75.566c-3.771 2.901-6.094 0.29-6.094-1.16 0-1.451 0.582-10.155 0.582-10.155C56.551 68.023 62.933 72.666 59.161 75.566z" fill="#ffffff" data-fill-palette-color="accent"></path><path d="M52.811 22.179c0 0-1.74-15.086-4.642-18.859-2.901-3.771-3.771 1.742-3.771 1.742s5.222 15.377 6.093 16.248C51.361 22.179 52.811 22.179 52.811 22.179z" fill="#ffffff" data-fill-palette-color="accent"></path><path d="M56.386 96.633c0 0-0.739-2.702-1.972-3.377-1.232-0.676-1.604 0.312-1.604 0.312s2.219 2.753 2.59 2.91C55.77 96.633 56.386 96.633 56.386 96.633z" fill="#ffffff" data-fill-palette-color="accent"></path><path d="M51.861 97.569c0 0 0.691-2.71-0.113-3.647-0.806-0.939-1.656-0.11-1.656-0.11s0.662 3.126 0.929 3.364C51.286 97.413 51.861 97.569 51.861 97.569z" fill="#ffffff" data-fill-palette-color="accent"></path><path d="M45.94 96.432c0 0 0.741-2.703 1.974-3.38 1.232-0.674 1.602 0.313 1.602 0.313s-2.22 2.754-2.589 2.907C46.558 96.432 45.94 96.432 45.94 96.432z" fill="#ffffff" data-fill-palette-color="accent"></path></g></svg></g></svg></g></svg></g></svg></g></svg></g><defs></defs></svg><rect width="576" height="360" fill="none" stroke="none" visibility="hidden"></rect></g></svg></g></svg>